# Blender 4.3.2
# www.blender.org
mtllib Collision.mtl
o Plane.001
v -26.264090 4.305242 13.853716
v -26.264090 0.009935 13.853716
v -26.264090 4.305242 -24.090782
v -26.264090 0.009935 -24.090782
v -16.118835 4.305242 13.853716
v -16.118835 0.009935 13.853716
v -16.118835 4.305242 6.049674
v -16.118835 0.009935 6.049674
v -16.164742 4.305242 -24.090782
v -16.164742 0.009935 -24.090782
v -16.164742 4.305242 -15.644054
v -16.164742 0.009935 -15.644054
v -16.164742 4.305242 -6.584842
v -16.164742 0.009935 -6.584842
v -16.164742 0.009935 -12.619999
v -16.164742 4.305242 -12.619999
v -22.061012 4.305242 -6.584842
v -22.061012 0.009935 -6.584842
v -22.061012 4.305242 3.747355
v -22.061012 0.009935 3.747355
v -16.002766 4.305242 3.747355
v -16.002766 0.009935 3.747355
v -15.781775 0.101747 10.328879
v -11.165125 0.101747 10.328879
v -15.781775 4.259335 10.328879
v -11.165125 4.259335 10.328879
v -13.184090 0.101747 6.665652
v -11.165125 0.101747 6.665652
v -13.184090 4.259335 6.665652
v -11.165125 4.259335 6.665652
v -13.184090 0.101747 -23.953739
v -13.184090 4.259335 -23.953739
v -21.059647 4.305242 -15.644054
v -21.059647 0.009935 -15.644054
v -21.059647 4.305242 -23.756958
v -21.059647 0.009935 -23.756958
v -26.405512 4.305242 13.995137
v -26.405512 0.009935 13.995137
v -26.405512 4.305242 -24.232204
v -26.405512 0.009935 -24.232204
v -15.977414 4.305242 13.995137
v -15.977414 0.009935 13.995137
v -15.918836 4.305242 6.049674
v -15.918836 0.009935 6.049674
v -16.023319 4.305242 -24.232204
v -16.023319 0.009935 -24.232204
v -16.023319 4.305242 -15.502633
v -16.023319 0.009935 -15.502633
v -16.023319 4.305242 -6.443420
v -16.023319 0.009935 -6.443420
v -15.964742 0.009935 -12.619999
v -15.964742 4.305242 -12.619999
v -21.919590 4.305242 -6.443420
v -21.919590 0.009935 -6.443420
v -21.919590 4.305242 3.605933
v -21.919590 0.009935 3.605933
v -16.002766 4.305242 3.547354
v -16.002766 0.009935 3.547354
v -15.781775 0.101747 10.128880
v -11.165125 0.101747 10.128880
v -15.781775 4.259335 10.128880
v -11.165125 4.259335 10.128880
v -13.042668 0.101747 6.524231
v -11.165125 0.101747 6.465652
v -13.042668 4.259335 6.524231
v -11.165125 4.259335 6.465652
v -12.984090 0.101747 -23.953739
v -12.984090 4.259335 -23.953739
v -21.201069 4.305242 -15.502633
v -21.201069 0.009935 -15.502633
v -21.259647 4.305242 -23.756958
v -21.259647 0.009935 -23.756958
vn 1.0000 -0.0000 -0.0000
vn -0.0000 -0.0000 -1.0000
vn -1.0000 -0.0000 -0.0000
vn -0.0000 -0.0000 1.0000
vn 1.0000 -0.0000 0.0074
vn 1.0000 -0.0000 0.0095
vn -0.0099 -0.0000 -1.0000
vn -0.0312 -0.0000 -0.9995
vn 1.0000 -0.0000 0.0019
vn -1.0000 -0.0000 0.0071
vn -0.0000 1.0000 -0.0000
vn -0.0000 -1.0000 -0.0000
vt 0.000000 0.000000
vt 1.000000 0.000000
vt 1.000000 1.000000
vt 0.000000 1.000000
s 0
f 1/1/1 2/2/1 4/3/1 3/4/1
f 2/2/2 1/1/2 5/1/2 6/2/2
f 6/2/3 5/1/3 7/1/3 8/2/3
f 3/4/4 4/3/4 10/3/4 9/4/4
f 9/4/3 10/3/3 12/3/3 11/4/3
f 16/4/3 15/3/3 14/3/3 13/4/3
f 13/4/2 14/3/2 18/3/2 17/4/2
f 17/4/3 18/3/3 20/3/3 19/4/3
f 19/4/4 20/3/4 22/3/4 21/4/4
f 23/1/4 24/2/4 26/3/4 25/4/4
f 27/1/4 28/2/4 30/3/4 29/4/4
f 27/1/3 29/4/3 32/4/3 31/1/3
f 11/4/2 12/3/2 34/3/2 33/4/2
f 33/4/1 34/3/1 36/3/1 35/4/1
f 37/1/3 39/4/3 40/3/3 38/2/3
f 38/2/4 42/2/4 41/1/4 37/1/4
f 42/2/5 44/2/5 43/1/5 41/1/5
f 39/4/2 45/4/2 46/3/2 40/3/2
f 45/4/1 47/4/1 48/3/1 46/3/1
f 52/4/6 49/4/6 50/3/6 51/3/6
f 49/4/4 53/4/4 54/3/4 50/3/4
f 53/4/1 55/4/1 56/3/1 54/3/1
f 55/4/7 57/4/7 58/3/7 56/3/7
f 59/1/2 61/4/2 62/3/2 60/2/2
f 63/1/8 65/4/8 66/3/8 64/2/8
f 63/1/9 67/1/9 68/4/9 65/4/9
f 47/4/4 69/4/4 70/3/4 48/3/4
f 69/4/10 71/4/10 72/3/10 70/3/10
f 1/1/11 3/4/11 39/4/11 37/1/11
f 4/3/12 2/2/12 38/2/12 40/3/12
f 5/1/11 1/1/11 37/1/11 41/1/11
f 2/2/12 6/2/12 42/2/12 38/2/12
f 8/2/2 7/1/2 43/1/2 44/2/2
f 7/1/11 5/1/11 41/1/11 43/1/11
f 6/2/12 8/2/12 44/2/12 42/2/12
f 10/3/12 4/3/12 40/3/12 46/3/12
f 3/4/11 9/4/11 45/4/11 39/4/11
f 12/3/12 10/3/12 46/3/12 48/3/12
f 9/4/11 11/4/11 47/4/11 45/4/11
f 14/3/12 15/3/12 51/3/12 50/3/12
f 18/3/12 14/3/12 50/3/12 54/3/12
f 16/4/11 13/4/11 49/4/11 52/4/11
f 15/3/2 16/4/2 52/4/2 51/3/2
f 13/4/11 17/4/11 53/4/11 49/4/11
f 20/3/12 18/3/12 54/3/12 56/3/12
f 17/4/11 19/4/11 55/4/11 53/4/11
f 21/4/1 22/3/1 58/3/1 57/4/1
f 22/3/12 20/3/12 56/3/12 58/3/12
f 19/4/11 21/4/11 57/4/11 55/4/11
f 23/1/3 25/4/3 61/4/3 59/1/3
f 24/2/12 23/1/12 59/1/12 60/2/12
f 26/3/1 24/2/1 60/2/1 62/3/1
f 25/4/11 26/3/11 62/3/11 61/4/11
f 28/2/12 27/1/12 63/1/12 64/2/12
f 30/3/1 28/2/1 64/2/1 66/3/1
f 29/4/11 30/3/11 66/3/11 65/4/11
f 31/1/2 32/4/2 68/4/2 67/1/2
f 32/4/11 29/4/11 65/4/11 68/4/11
f 27/1/12 31/1/12 67/1/12 63/1/12
f 34/3/12 12/3/12 48/3/12 70/3/12
f 11/4/11 33/4/11 69/4/11 47/4/11
f 35/4/2 36/3/2 72/3/2 71/4/2
f 36/3/12 34/3/12 70/3/12 72/3/12
f 33/4/11 35/4/11 71/4/11 69/4/11
